<mxfile host="Electron" modified="2024-02-27T17:22:37.823Z" agent="Mozilla/5.0 (Windows NT 10.0; Win64; x64) AppleWebKit/537.36 (KHTML, like Gecko) draw.io/23.1.5 Chrome/120.0.6099.109 Electron/28.1.0 Safari/537.36" etag="EbSUGd60Ixq2E17uF_Gk" version="23.1.5" type="device" pages="4">
  <diagram name="Architecture Diagram" id="EqOSfAF9UxV9FrQAuN-9">
    <mxGraphModel dx="1434" dy="844" grid="1" gridSize="10" guides="1" tooltips="1" connect="1" arrows="1" fold="1" page="1" pageScale="1" pageWidth="1100" pageHeight="850" math="0" shadow="0">
      <root>
        <mxCell id="0" />
        <mxCell id="1" parent="0" />
        <mxCell id="h_64VjBJcjnfOyih_3GU-10" style="edgeStyle=orthogonalEdgeStyle;rounded=0;orthogonalLoop=1;jettySize=auto;html=1;entryX=0.5;entryY=0;entryDx=0;entryDy=0;entryPerimeter=0;" parent="1" target="JBzOEodIN-BkEHL5_Y5i-1" edge="1">
          <mxGeometry relative="1" as="geometry">
            <mxPoint x="320" y="300" as="sourcePoint" />
            <mxPoint x="500" y="480" as="targetPoint" />
          </mxGeometry>
        </mxCell>
        <mxCell id="h_64VjBJcjnfOyih_3GU-1" value="Nielsen Reporting Lambda" style="sketch=0;outlineConnect=0;fontColor=#232F3E;gradientColor=none;strokeColor=#ffffff;fillColor=#232F3E;dashed=0;verticalLabelPosition=middle;verticalAlign=bottom;align=center;html=1;whiteSpace=wrap;fontSize=10;fontStyle=1;spacing=3;shape=mxgraph.aws4.productIcon;prIcon=mxgraph.aws4.lambda;" parent="1" vertex="1">
          <mxGeometry x="240" y="240" width="80" height="120" as="geometry" />
        </mxCell>
        <mxCell id="h_64VjBJcjnfOyih_3GU-8" style="edgeStyle=orthogonalEdgeStyle;rounded=0;orthogonalLoop=1;jettySize=auto;html=1;startArrow=classic;startFill=1;" parent="1" source="h_64VjBJcjnfOyih_3GU-2" target="h_64VjBJcjnfOyih_3GU-1" edge="1">
          <mxGeometry relative="1" as="geometry" />
        </mxCell>
        <mxCell id="h_64VjBJcjnfOyih_3GU-2" value="" style="image;html=1;image=img/lib/clip_art/computers/Database_128x128.png" parent="1" vertex="1">
          <mxGeometry x="240" y="480" width="80" height="80" as="geometry" />
        </mxCell>
        <mxCell id="h_64VjBJcjnfOyih_3GU-6" style="edgeStyle=orthogonalEdgeStyle;rounded=0;orthogonalLoop=1;jettySize=auto;html=1;startArrow=classic;startFill=1;endArrow=none;endFill=0;exitX=0;exitY=0.48;exitDx=0;exitDy=0;exitPerimeter=0;" parent="1" source="h_64VjBJcjnfOyih_3GU-11" target="h_64VjBJcjnfOyih_3GU-1" edge="1">
          <mxGeometry relative="1" as="geometry">
            <mxPoint x="360" y="185" as="sourcePoint" />
          </mxGeometry>
        </mxCell>
        <mxCell id="h_64VjBJcjnfOyih_3GU-11" value="" style="outlineConnect=0;dashed=0;verticalLabelPosition=bottom;verticalAlign=top;align=center;html=1;shape=mxgraph.aws3.ses;fillColor=#D9A741;gradientColor=none;" parent="1" vertex="1">
          <mxGeometry x="560" y="140" width="79.5" height="93" as="geometry" />
        </mxCell>
        <mxCell id="h_64VjBJcjnfOyih_3GU-13" value="Universal&amp;nbsp;&lt;br&gt;DB" style="text;html=1;strokeColor=none;fillColor=none;align=center;verticalAlign=middle;whiteSpace=wrap;rounded=0;" parent="1" vertex="1">
          <mxGeometry x="250" y="570" width="60" height="30" as="geometry" />
        </mxCell>
        <mxCell id="h_64VjBJcjnfOyih_3GU-15" value="SES" style="text;html=1;strokeColor=none;fillColor=none;align=center;verticalAlign=middle;whiteSpace=wrap;rounded=0;" parent="1" vertex="1">
          <mxGeometry x="569.75" y="233" width="60" height="30" as="geometry" />
        </mxCell>
        <mxCell id="JBzOEodIN-BkEHL5_Y5i-1" value="" style="verticalLabelPosition=bottom;sketch=0;html=1;fillColor=#A153A0;strokeColor=#ffffff;verticalAlign=top;align=center;points=[[0,0.5,0],[0.125,0.25,0],[0.25,0,0],[0.5,0,0],[0.75,0,0],[0.875,0.25,0],[1,0.5,0],[0.875,0.75,0],[0.75,1,0],[0.5,1,0],[0.125,0.75,0]];pointerEvents=1;shape=mxgraph.cisco_safe.compositeIcon;bgIcon=mxgraph.cisco_safe.design.blank_device;resIcon=mxgraph.cisco_safe.design.log_collector_2;" parent="1" vertex="1">
          <mxGeometry x="430" y="474" width="100" height="92" as="geometry" />
        </mxCell>
        <mxCell id="JBzOEodIN-BkEHL5_Y5i-2" value="CloudWatch Logs" style="text;html=1;strokeColor=none;fillColor=none;align=center;verticalAlign=middle;whiteSpace=wrap;rounded=0;" parent="1" vertex="1">
          <mxGeometry x="450" y="570" width="60" height="30" as="geometry" />
        </mxCell>
        <mxCell id="ltnR_vWxz3jyMfiVWhO7-2" style="edgeStyle=orthogonalEdgeStyle;rounded=0;orthogonalLoop=1;jettySize=auto;html=1;" parent="1" source="ltnR_vWxz3jyMfiVWhO7-1" target="h_64VjBJcjnfOyih_3GU-1" edge="1">
          <mxGeometry relative="1" as="geometry" />
        </mxCell>
        <mxCell id="ltnR_vWxz3jyMfiVWhO7-1" value="CloudWatch &lt;br&gt;Time Trigger" style="sketch=0;outlineConnect=0;fontColor=#232F3E;gradientColor=none;strokeColor=#232F3E;fillColor=#ffffff;dashed=0;verticalLabelPosition=bottom;verticalAlign=top;align=center;html=1;fontSize=12;fontStyle=0;aspect=fixed;shape=mxgraph.aws4.resourceIcon;resIcon=mxgraph.aws4.event_time_based;" parent="1" vertex="1">
          <mxGeometry x="50" y="270" width="60" height="60" as="geometry" />
        </mxCell>
      </root>
    </mxGraphModel>
  </diagram>
  <diagram id="ORHRwgy645g2wktpHmo-" name="Sequence Diagram">
    <mxGraphModel dx="1434" dy="844" grid="1" gridSize="10" guides="1" tooltips="1" connect="1" arrows="1" fold="1" page="1" pageScale="1" pageWidth="1100" pageHeight="850" math="0" shadow="0">
      <root>
        <mxCell id="0" />
        <mxCell id="1" parent="0" />
        <mxCell id="0DhM-eU6NFH7G5UDxQWF-1" value="Lambda" style="shape=umlLifeline;perimeter=lifelinePerimeter;whiteSpace=wrap;html=1;container=1;dropTarget=0;collapsible=0;recursiveResize=0;outlineConnect=0;portConstraint=eastwest;newEdgeStyle={&quot;edgeStyle&quot;:&quot;elbowEdgeStyle&quot;,&quot;elbow&quot;:&quot;vertical&quot;,&quot;curved&quot;:0,&quot;rounded&quot;:0};strokeWidth=2;fillColor=#d5e8d4;gradientColor=#97d077;strokeColor=#82b366;rounded=1;shadow=0;glass=0;" parent="1" vertex="1">
          <mxGeometry x="280" y="80" width="100" height="600" as="geometry" />
        </mxCell>
        <mxCell id="LNtO-cqqQEX49Jt9hzPX-5" value="" style="html=1;points=[[0,0,0,0,5],[0,1,0,0,-5],[1,0,0,0,5],[1,1,0,0,-5]];perimeter=orthogonalPerimeter;outlineConnect=0;targetShapes=umlLifeline;portConstraint=eastwest;newEdgeStyle={&quot;curved&quot;:0,&quot;rounded&quot;:0};" parent="0DhM-eU6NFH7G5UDxQWF-1" vertex="1">
          <mxGeometry x="45" y="80" width="10" height="480" as="geometry" />
        </mxCell>
        <mxCell id="0DhM-eU6NFH7G5UDxQWF-2" value="Universal DB" style="shape=umlLifeline;perimeter=lifelinePerimeter;whiteSpace=wrap;html=1;container=1;dropTarget=0;collapsible=0;recursiveResize=0;outlineConnect=0;portConstraint=eastwest;newEdgeStyle={&quot;edgeStyle&quot;:&quot;elbowEdgeStyle&quot;,&quot;elbow&quot;:&quot;vertical&quot;,&quot;curved&quot;:0,&quot;rounded&quot;:0};strokeWidth=2;fillColor=#dae8fc;gradientColor=#7ea6e0;strokeColor=#6c8ebf;rounded=1;shadow=0;glass=0;" parent="1" vertex="1">
          <mxGeometry x="440" y="80" width="100" height="600" as="geometry" />
        </mxCell>
        <mxCell id="LNtO-cqqQEX49Jt9hzPX-6" value="" style="html=1;points=[[0,0,0,0,5],[0,1,0,0,-5],[1,0,0,0,5],[1,1,0,0,-5]];perimeter=orthogonalPerimeter;outlineConnect=0;targetShapes=umlLifeline;portConstraint=eastwest;newEdgeStyle={&quot;curved&quot;:0,&quot;rounded&quot;:0};" parent="0DhM-eU6NFH7G5UDxQWF-2" vertex="1">
          <mxGeometry x="45" y="120" width="10" height="80" as="geometry" />
        </mxCell>
        <mxCell id="ZVTcPb_TioCnOxeZLeT5-1" value="" style="html=1;points=[[0,0,0,0,5],[0,1,0,0,-5],[1,0,0,0,5],[1,1,0,0,-5]];perimeter=orthogonalPerimeter;outlineConnect=0;targetShapes=umlLifeline;portConstraint=eastwest;newEdgeStyle={&quot;curved&quot;:0,&quot;rounded&quot;:0};" vertex="1" parent="0DhM-eU6NFH7G5UDxQWF-2">
          <mxGeometry x="45" y="370" width="10" height="90" as="geometry" />
        </mxCell>
        <mxCell id="LNtO-cqqQEX49Jt9hzPX-2" value="SES" style="shape=umlLifeline;perimeter=lifelinePerimeter;whiteSpace=wrap;html=1;container=1;dropTarget=0;collapsible=0;recursiveResize=0;outlineConnect=0;portConstraint=eastwest;newEdgeStyle={&quot;edgeStyle&quot;:&quot;elbowEdgeStyle&quot;,&quot;elbow&quot;:&quot;vertical&quot;,&quot;curved&quot;:0,&quot;rounded&quot;:0};strokeWidth=2;fillColor=#ffcd28;gradientColor=#ffa500;strokeColor=#d79b00;rounded=1;shadow=0;glass=0;" parent="1" vertex="1">
          <mxGeometry x="599" y="80" width="100" height="600" as="geometry" />
        </mxCell>
        <mxCell id="LNtO-cqqQEX49Jt9hzPX-12" value="" style="html=1;points=[[0,0,0,0,5],[0,1,0,0,-5],[1,0,0,0,5],[1,1,0,0,-5]];perimeter=orthogonalPerimeter;outlineConnect=0;targetShapes=umlLifeline;portConstraint=eastwest;newEdgeStyle={&quot;curved&quot;:0,&quot;rounded&quot;:0};" parent="LNtO-cqqQEX49Jt9hzPX-2" vertex="1">
          <mxGeometry x="45" y="230" width="10" height="140" as="geometry" />
        </mxCell>
        <mxCell id="LNtO-cqqQEX49Jt9hzPX-3" value="CloudWatch&lt;br&gt;Logs" style="shape=umlLifeline;perimeter=lifelinePerimeter;whiteSpace=wrap;html=1;container=1;dropTarget=0;collapsible=0;recursiveResize=0;outlineConnect=0;portConstraint=eastwest;newEdgeStyle={&quot;edgeStyle&quot;:&quot;elbowEdgeStyle&quot;,&quot;elbow&quot;:&quot;vertical&quot;,&quot;curved&quot;:0,&quot;rounded&quot;:0};strokeWidth=2;fillColor=#f5f5f5;gradientColor=#b3b3b3;strokeColor=#666666;rounded=1;shadow=0;glass=0;" parent="1" vertex="1">
          <mxGeometry x="759" y="80" width="100" height="600" as="geometry" />
        </mxCell>
        <mxCell id="LNtO-cqqQEX49Jt9hzPX-17" value="" style="html=1;points=[[0,0,0,0,5],[0,1,0,0,-5],[1,0,0,0,5],[1,1,0,0,-5]];perimeter=orthogonalPerimeter;outlineConnect=0;targetShapes=umlLifeline;portConstraint=eastwest;newEdgeStyle={&quot;curved&quot;:0,&quot;rounded&quot;:0};" parent="LNtO-cqqQEX49Jt9hzPX-3" vertex="1">
          <mxGeometry x="45" y="480" width="10" height="80" as="geometry" />
        </mxCell>
        <mxCell id="LNtO-cqqQEX49Jt9hzPX-7" value="GetNewChannels()" style="html=1;verticalAlign=bottom;endArrow=block;curved=0;rounded=0;entryX=0;entryY=0;entryDx=0;entryDy=5;" parent="1" source="LNtO-cqqQEX49Jt9hzPX-5" target="LNtO-cqqQEX49Jt9hzPX-6" edge="1">
          <mxGeometry relative="1" as="geometry">
            <mxPoint x="415" y="205" as="sourcePoint" />
          </mxGeometry>
        </mxCell>
        <mxCell id="LNtO-cqqQEX49Jt9hzPX-8" value="List&amp;lt;Channels&amp;gt;" style="html=1;verticalAlign=bottom;endArrow=open;dashed=1;endSize=8;curved=0;rounded=0;exitX=0;exitY=1;exitDx=0;exitDy=-5;" parent="1" source="LNtO-cqqQEX49Jt9hzPX-6" target="LNtO-cqqQEX49Jt9hzPX-5" edge="1">
          <mxGeometry relative="1" as="geometry">
            <mxPoint x="415" y="275" as="targetPoint" />
          </mxGeometry>
        </mxCell>
        <mxCell id="LNtO-cqqQEX49Jt9hzPX-10" value="SendEmail(MailParameters)" style="html=1;verticalAlign=bottom;endArrow=block;curved=0;rounded=0;entryX=0;entryY=0;entryDx=0;entryDy=5;" parent="1" source="LNtO-cqqQEX49Jt9hzPX-5" edge="1">
          <mxGeometry relative="1" as="geometry">
            <mxPoint x="575" y="325" as="sourcePoint" />
            <mxPoint x="645" y="325.0000000000002" as="targetPoint" />
          </mxGeometry>
        </mxCell>
        <mxCell id="LNtO-cqqQEX49Jt9hzPX-11" value="SendEmailResponse" style="html=1;verticalAlign=bottom;endArrow=open;dashed=1;endSize=8;curved=0;rounded=0;exitX=0;exitY=1;exitDx=0;exitDy=-5;" parent="1" edge="1">
          <mxGeometry relative="1" as="geometry">
            <mxPoint x="335" y="399.9999999999998" as="targetPoint" />
            <mxPoint x="645" y="399.9999999999998" as="sourcePoint" />
          </mxGeometry>
        </mxCell>
        <mxCell id="LNtO-cqqQEX49Jt9hzPX-18" value="AddLogEntry(Log)" style="html=1;verticalAlign=bottom;endArrow=block;curved=0;rounded=0;entryX=0;entryY=0;entryDx=0;entryDy=5;" parent="1" edge="1">
          <mxGeometry x="-0.6984" relative="1" as="geometry">
            <mxPoint x="335" y="580" as="sourcePoint" />
            <mxPoint as="offset" />
            <mxPoint x="804" y="580" as="targetPoint" />
          </mxGeometry>
        </mxCell>
        <mxCell id="ZVTcPb_TioCnOxeZLeT5-2" value="AddReporLog()" style="html=1;verticalAlign=bottom;endArrow=block;curved=0;rounded=0;" edge="1" parent="1">
          <mxGeometry relative="1" as="geometry">
            <mxPoint x="335.00000000000006" y="490" as="sourcePoint" />
            <mxPoint x="485" y="490" as="targetPoint" />
          </mxGeometry>
        </mxCell>
        <mxCell id="ZVTcPb_TioCnOxeZLeT5-4" value="Scheduled&lt;br&gt;Trigger" style="shape=umlLifeline;perimeter=lifelinePerimeter;whiteSpace=wrap;html=1;container=1;dropTarget=0;collapsible=0;recursiveResize=0;outlineConnect=0;portConstraint=eastwest;newEdgeStyle={&quot;edgeStyle&quot;:&quot;elbowEdgeStyle&quot;,&quot;elbow&quot;:&quot;vertical&quot;,&quot;curved&quot;:0,&quot;rounded&quot;:0};strokeWidth=2;rounded=1;shadow=0;glass=0;fillColor=#e6d0de;gradientColor=#d5739d;strokeColor=#996185;" vertex="1" parent="1">
          <mxGeometry x="120" y="80" width="100" height="600" as="geometry" />
        </mxCell>
        <mxCell id="ZVTcPb_TioCnOxeZLeT5-5" value="" style="html=1;points=[[0,0,0,0,5],[0,1,0,0,-5],[1,0,0,0,5],[1,1,0,0,-5]];perimeter=orthogonalPerimeter;outlineConnect=0;targetShapes=umlLifeline;portConstraint=eastwest;newEdgeStyle={&quot;curved&quot;:0,&quot;rounded&quot;:0};" vertex="1" parent="ZVTcPb_TioCnOxeZLeT5-4">
          <mxGeometry x="45" y="80" width="10" height="480" as="geometry" />
        </mxCell>
        <mxCell id="ZVTcPb_TioCnOxeZLeT5-6" style="edgeStyle=orthogonalEdgeStyle;rounded=0;orthogonalLoop=1;jettySize=auto;html=1;curved=0;" edge="1" parent="1" source="ZVTcPb_TioCnOxeZLeT5-5" target="LNtO-cqqQEX49Jt9hzPX-5">
          <mxGeometry relative="1" as="geometry" />
        </mxCell>
        <mxCell id="DbYnG-TSvJ7nXdE6mP5N-1" value="Trigger Lambda" style="text;html=1;align=center;verticalAlign=middle;resizable=0;points=[];autosize=1;strokeColor=none;fillColor=none;" vertex="1" parent="1">
          <mxGeometry x="185" y="378" width="110" height="30" as="geometry" />
        </mxCell>
      </root>
    </mxGraphModel>
  </diagram>
  <diagram id="HSLpLSslQhfBp81G6hs1" name="Email Template">
    <mxGraphModel dx="1434" dy="844" grid="1" gridSize="10" guides="1" tooltips="1" connect="1" arrows="1" fold="1" page="1" pageScale="1" pageWidth="1100" pageHeight="850" math="0" shadow="0">
      <root>
        <mxCell id="0" />
        <mxCell id="1" parent="0" />
        <mxCell id="uiZ7AZqBgxmKRuhd3uKZ-1" value="" style="html=1;shadow=0;dashed=0;shape=mxgraph.bootstrap.rrect;rSize=5;strokeColor=#D2D3D4;html=1;whiteSpace=wrap;fillColor=#F8F9FA;fontColor=#212529;verticalAlign=bottom;align=left;spacing=20;spacingBottom=0;fontSize=14;" parent="1" vertex="1">
          <mxGeometry x="40" y="200" width="1000" height="480" as="geometry" />
        </mxCell>
        <mxCell id="uiZ7AZqBgxmKRuhd3uKZ-2" value="Nielsen New Channels" style="html=1;shadow=0;dashed=0;shape=mxgraph.bootstrap.topButton;rSize=5;perimeter=none;whiteSpace=wrap;fillColor=#F0F1F2;strokeColor=#D2D3D4;fontColor=#212529;resizeWidth=1;fontSize=18;align=left;spacing=20;" parent="uiZ7AZqBgxmKRuhd3uKZ-1" vertex="1">
          <mxGeometry width="1000" height="50" relative="1" as="geometry" />
        </mxCell>
        <mxCell id="uiZ7AZqBgxmKRuhd3uKZ-3" value="Channels added&amp;nbsp; From: dd/MM/YYYY To: dd/MM/YYYY" style="html=1;shadow=0;dashed=0;shape=mxgraph.bootstrap.rrect;rSize=5;strokeColor=none;strokeWidth=1;fillColor=#F8F9FA;fontColor=#000000;whiteSpace=wrap;align=left;verticalAlign=middle;spacingLeft=0;fontStyle=1;fontSize=14;spacing=5;" parent="uiZ7AZqBgxmKRuhd3uKZ-1" vertex="1">
          <mxGeometry x="11.363636363636365" y="89.99869565217392" width="625" height="31.30434782608696" as="geometry" />
        </mxCell>
        <mxCell id="uiZ7AZqBgxmKRuhd3uKZ-4" value="" style="shape=table;html=1;whiteSpace=wrap;startSize=0;container=1;collapsible=0;childLayout=tableLayout;columnLines=1;rowLines=1;fontSize=16;strokeColor=default;fixedRows=0;swimlaneFillColor=default;rounded=0;shadow=0;" parent="uiZ7AZqBgxmKRuhd3uKZ-1" vertex="1">
          <mxGeometry x="45.45" y="135.65" width="904.55" height="174.35" as="geometry" />
        </mxCell>
        <mxCell id="uiZ7AZqBgxmKRuhd3uKZ-5" value="" style="shape=tableRow;horizontal=0;startSize=0;swimlaneHead=0;swimlaneBody=0;top=0;left=0;bottom=0;right=0;collapsible=0;dropTarget=0;fillColor=#0050ef;points=[[0,0.5],[1,0.5]];portConstraint=eastwest;fontSize=16;strokeColor=#ffffff;fontColor=#FFFFFF;fontStyle=1;rounded=0;shadow=0;perimeterSpacing=0;strokeWidth=0;opacity=80;" parent="uiZ7AZqBgxmKRuhd3uKZ-4" vertex="1">
          <mxGeometry width="904.55" height="59" as="geometry" />
        </mxCell>
        <mxCell id="uiZ7AZqBgxmKRuhd3uKZ-6" value="Channel Key" style="shape=partialRectangle;html=1;whiteSpace=wrap;connectable=0;fillColor=none;top=0;left=0;bottom=0;right=0;overflow=hidden;fontSize=15;strokeColor=inherit;fontColor=#FFFFFF;fontStyle=1" parent="uiZ7AZqBgxmKRuhd3uKZ-5" vertex="1">
          <mxGeometry width="151" height="59" as="geometry">
            <mxRectangle width="151" height="59" as="alternateBounds" />
          </mxGeometry>
        </mxCell>
        <mxCell id="uiZ7AZqBgxmKRuhd3uKZ-7" value="Channel Name" style="shape=partialRectangle;html=1;whiteSpace=wrap;connectable=0;fillColor=none;top=0;left=0;bottom=0;right=0;overflow=hidden;fontSize=15;strokeColor=inherit;fontColor=#FFFFFF;fontStyle=1" parent="uiZ7AZqBgxmKRuhd3uKZ-5" vertex="1">
          <mxGeometry x="151" width="151" height="59" as="geometry">
            <mxRectangle width="151" height="59" as="alternateBounds" />
          </mxGeometry>
        </mxCell>
        <mxCell id="uiZ7AZqBgxmKRuhd3uKZ-8" value="Stream Start" style="shape=partialRectangle;html=1;whiteSpace=wrap;connectable=0;fillColor=none;top=0;left=0;bottom=0;right=0;overflow=hidden;fontSize=15;strokeColor=inherit;fontColor=#FFFFFF;fontStyle=1" parent="uiZ7AZqBgxmKRuhd3uKZ-5" vertex="1">
          <mxGeometry x="302" width="150" height="59" as="geometry">
            <mxRectangle width="150" height="59" as="alternateBounds" />
          </mxGeometry>
        </mxCell>
        <mxCell id="uiZ7AZqBgxmKRuhd3uKZ-17" value="Stream End" style="shape=partialRectangle;html=1;whiteSpace=wrap;connectable=0;fillColor=none;top=0;left=0;bottom=0;right=0;overflow=hidden;fontSize=15;strokeColor=inherit;fontColor=#FFFFFF;fontStyle=1" parent="uiZ7AZqBgxmKRuhd3uKZ-5" vertex="1">
          <mxGeometry x="452" width="151" height="59" as="geometry">
            <mxRectangle width="151" height="59" as="alternateBounds" />
          </mxGeometry>
        </mxCell>
        <mxCell id="uiZ7AZqBgxmKRuhd3uKZ-20" value="Station Id" style="shape=partialRectangle;html=1;whiteSpace=wrap;connectable=0;fillColor=none;top=0;left=0;bottom=0;right=0;overflow=hidden;fontSize=15;strokeColor=inherit;fontColor=#FFFFFF;fontStyle=1" parent="uiZ7AZqBgxmKRuhd3uKZ-5" vertex="1">
          <mxGeometry x="603" width="151" height="59" as="geometry">
            <mxRectangle width="151" height="59" as="alternateBounds" />
          </mxGeometry>
        </mxCell>
        <mxCell id="Wp3KG1aDAewbNQNjzjTw-1" value="Source Key" style="shape=partialRectangle;html=1;whiteSpace=wrap;connectable=0;fillColor=none;top=0;left=0;bottom=0;right=0;overflow=hidden;fontSize=15;strokeColor=inherit;fontColor=#FFFFFF;fontStyle=1" parent="uiZ7AZqBgxmKRuhd3uKZ-5" vertex="1">
          <mxGeometry x="754" width="151" height="59" as="geometry">
            <mxRectangle width="151" height="59" as="alternateBounds" />
          </mxGeometry>
        </mxCell>
        <mxCell id="uiZ7AZqBgxmKRuhd3uKZ-9" value="" style="shape=tableRow;horizontal=0;startSize=0;swimlaneHead=0;swimlaneBody=0;top=0;left=0;bottom=0;right=0;collapsible=0;dropTarget=0;fillColor=none;points=[[0,0.5],[1,0.5]];portConstraint=eastwest;fontSize=16;strokeColor=inherit;" parent="uiZ7AZqBgxmKRuhd3uKZ-4" vertex="1">
          <mxGeometry y="59" width="904.55" height="57" as="geometry" />
        </mxCell>
        <mxCell id="uiZ7AZqBgxmKRuhd3uKZ-10" value="98wurl_nosey_2" style="shape=partialRectangle;html=1;whiteSpace=wrap;connectable=0;fillColor=none;top=0;left=0;bottom=0;right=0;overflow=hidden;fontSize=12;strokeColor=inherit;" parent="uiZ7AZqBgxmKRuhd3uKZ-9" vertex="1">
          <mxGeometry width="151" height="57" as="geometry">
            <mxRectangle width="151" height="57" as="alternateBounds" />
          </mxGeometry>
        </mxCell>
        <mxCell id="uiZ7AZqBgxmKRuhd3uKZ-11" value="Nosey" style="shape=partialRectangle;html=1;whiteSpace=wrap;connectable=0;fillColor=none;top=0;left=0;bottom=0;right=0;overflow=hidden;fontSize=12;strokeColor=inherit;" parent="uiZ7AZqBgxmKRuhd3uKZ-9" vertex="1">
          <mxGeometry x="151" width="151" height="57" as="geometry">
            <mxRectangle width="151" height="57" as="alternateBounds" />
          </mxGeometry>
        </mxCell>
        <mxCell id="uiZ7AZqBgxmKRuhd3uKZ-12" value="2020-08-26T09:42:09" style="shape=partialRectangle;html=1;whiteSpace=wrap;connectable=0;fillColor=none;top=0;left=0;bottom=0;right=0;overflow=hidden;fontSize=12;strokeColor=inherit;" parent="uiZ7AZqBgxmKRuhd3uKZ-9" vertex="1">
          <mxGeometry x="302" width="150" height="57" as="geometry">
            <mxRectangle width="150" height="57" as="alternateBounds" />
          </mxGeometry>
        </mxCell>
        <mxCell id="uiZ7AZqBgxmKRuhd3uKZ-18" value="2025-08-26T09:42:09" style="shape=partialRectangle;html=1;whiteSpace=wrap;connectable=0;fillColor=none;top=0;left=0;bottom=0;right=0;overflow=hidden;fontSize=12;strokeColor=inherit;" parent="uiZ7AZqBgxmKRuhd3uKZ-9" vertex="1">
          <mxGeometry x="452" width="151" height="57" as="geometry">
            <mxRectangle width="151" height="57" as="alternateBounds" />
          </mxGeometry>
        </mxCell>
        <mxCell id="uiZ7AZqBgxmKRuhd3uKZ-21" value="2922977890" style="shape=partialRectangle;html=1;whiteSpace=wrap;connectable=0;fillColor=none;top=0;left=0;bottom=0;right=0;overflow=hidden;fontSize=12;strokeColor=inherit;" parent="uiZ7AZqBgxmKRuhd3uKZ-9" vertex="1">
          <mxGeometry x="603" width="151" height="57" as="geometry">
            <mxRectangle width="151" height="57" as="alternateBounds" />
          </mxGeometry>
        </mxCell>
        <mxCell id="Wp3KG1aDAewbNQNjzjTw-2" value="OLMMC" style="shape=partialRectangle;html=1;whiteSpace=wrap;connectable=0;fillColor=none;top=0;left=0;bottom=0;right=0;overflow=hidden;fontSize=12;strokeColor=inherit;" parent="uiZ7AZqBgxmKRuhd3uKZ-9" vertex="1">
          <mxGeometry x="754" width="151" height="57" as="geometry">
            <mxRectangle width="151" height="57" as="alternateBounds" />
          </mxGeometry>
        </mxCell>
        <mxCell id="uiZ7AZqBgxmKRuhd3uKZ-13" value="" style="shape=tableRow;horizontal=0;startSize=0;swimlaneHead=0;swimlaneBody=0;top=0;left=0;bottom=0;right=0;collapsible=0;dropTarget=0;fillColor=none;points=[[0,0.5],[1,0.5]];portConstraint=eastwest;fontSize=16;strokeColor=inherit;" parent="uiZ7AZqBgxmKRuhd3uKZ-4" vertex="1">
          <mxGeometry y="116" width="904.55" height="58" as="geometry" />
        </mxCell>
        <mxCell id="uiZ7AZqBgxmKRuhd3uKZ-14" value="93CRCKLESL" style="shape=partialRectangle;html=1;whiteSpace=wrap;connectable=0;fillColor=none;top=0;left=0;bottom=0;right=0;overflow=hidden;fontSize=12;strokeColor=inherit;" parent="uiZ7AZqBgxmKRuhd3uKZ-13" vertex="1">
          <mxGeometry width="151" height="58" as="geometry">
            <mxRectangle width="151" height="58" as="alternateBounds" />
          </mxGeometry>
        </mxCell>
        <mxCell id="uiZ7AZqBgxmKRuhd3uKZ-15" value="Crackle" style="shape=partialRectangle;html=1;whiteSpace=wrap;connectable=0;fillColor=none;top=0;left=0;bottom=0;right=0;overflow=hidden;fontSize=12;strokeColor=inherit;" parent="uiZ7AZqBgxmKRuhd3uKZ-13" vertex="1">
          <mxGeometry x="151" width="151" height="58" as="geometry">
            <mxRectangle width="151" height="58" as="alternateBounds" />
          </mxGeometry>
        </mxCell>
        <mxCell id="uiZ7AZqBgxmKRuhd3uKZ-16" value="2020-08-26T09:42:09" style="shape=partialRectangle;html=1;whiteSpace=wrap;connectable=0;fillColor=none;top=0;left=0;bottom=0;right=0;overflow=hidden;fontSize=12;strokeColor=inherit;" parent="uiZ7AZqBgxmKRuhd3uKZ-13" vertex="1">
          <mxGeometry x="302" width="150" height="58" as="geometry">
            <mxRectangle width="150" height="58" as="alternateBounds" />
          </mxGeometry>
        </mxCell>
        <mxCell id="uiZ7AZqBgxmKRuhd3uKZ-19" value="2028-10-26T09:42:09" style="shape=partialRectangle;html=1;whiteSpace=wrap;connectable=0;fillColor=none;top=0;left=0;bottom=0;right=0;overflow=hidden;fontSize=12;strokeColor=inherit;" parent="uiZ7AZqBgxmKRuhd3uKZ-13" vertex="1">
          <mxGeometry x="452" width="151" height="58" as="geometry">
            <mxRectangle width="151" height="58" as="alternateBounds" />
          </mxGeometry>
        </mxCell>
        <mxCell id="uiZ7AZqBgxmKRuhd3uKZ-22" value="2922977899" style="shape=partialRectangle;html=1;whiteSpace=wrap;connectable=0;fillColor=none;top=0;left=0;bottom=0;right=0;overflow=hidden;fontSize=12;strokeColor=inherit;" parent="uiZ7AZqBgxmKRuhd3uKZ-13" vertex="1">
          <mxGeometry x="603" width="151" height="58" as="geometry">
            <mxRectangle width="151" height="58" as="alternateBounds" />
          </mxGeometry>
        </mxCell>
        <mxCell id="Wp3KG1aDAewbNQNjzjTw-3" value="CAN44" style="shape=partialRectangle;html=1;whiteSpace=wrap;connectable=0;fillColor=none;top=0;left=0;bottom=0;right=0;overflow=hidden;fontSize=12;strokeColor=inherit;" parent="uiZ7AZqBgxmKRuhd3uKZ-13" vertex="1">
          <mxGeometry x="754" width="151" height="58" as="geometry">
            <mxRectangle width="151" height="58" as="alternateBounds" />
          </mxGeometry>
        </mxCell>
        <mxCell id="uiZ7AZqBgxmKRuhd3uKZ-23" value="This email is generated automatically, please do not reply on it. In case of any question or comment, please contact email@vizio.com&amp;nbsp;&lt;br&gt;&lt;br&gt;&lt;br&gt;Kind regards,&lt;br&gt;&lt;br&gt;&lt;br&gt;Vizio Data Team" style="text;html=1;strokeColor=none;fillColor=none;align=left;verticalAlign=middle;whiteSpace=wrap;rounded=0;" parent="uiZ7AZqBgxmKRuhd3uKZ-1" vertex="1">
          <mxGeometry x="11.36" y="320" width="748.64" height="146.67" as="geometry" />
        </mxCell>
      </root>
    </mxGraphModel>
  </diagram>
  <diagram id="0C8qWWoS5AASA47SSZAd" name="Flowchart diagram">
    <mxGraphModel dx="880" dy="532" grid="1" gridSize="10" guides="1" tooltips="1" connect="1" arrows="1" fold="1" page="1" pageScale="1" pageWidth="1100" pageHeight="850" math="0" shadow="0">
      <root>
        <mxCell id="0" />
        <mxCell id="1" parent="0" />
        <mxCell id="3kC1Cd_PgrKXWJZZKIY_-3" style="edgeStyle=orthogonalEdgeStyle;rounded=0;orthogonalLoop=1;jettySize=auto;html=1;entryX=0.5;entryY=0;entryDx=0;entryDy=0;" parent="1" source="3kC1Cd_PgrKXWJZZKIY_-1" target="3kC1Cd_PgrKXWJZZKIY_-2" edge="1">
          <mxGeometry relative="1" as="geometry" />
        </mxCell>
        <mxCell id="3kC1Cd_PgrKXWJZZKIY_-1" value="Start" style="strokeWidth=2;html=1;shape=mxgraph.flowchart.start_1;whiteSpace=wrap;" parent="1" vertex="1">
          <mxGeometry x="160" y="40" width="80" height="40" as="geometry" />
        </mxCell>
        <mxCell id="3kC1Cd_PgrKXWJZZKIY_-5" style="edgeStyle=orthogonalEdgeStyle;rounded=0;orthogonalLoop=1;jettySize=auto;html=1;exitX=0.5;exitY=1;exitDx=0;exitDy=0;entryX=0.5;entryY=0;entryDx=0;entryDy=0;" parent="1" source="3kC1Cd_PgrKXWJZZKIY_-2" target="3kC1Cd_PgrKXWJZZKIY_-4" edge="1">
          <mxGeometry relative="1" as="geometry" />
        </mxCell>
        <mxCell id="3kC1Cd_PgrKXWJZZKIY_-2" value="Get last reported channel set data" style="rounded=1;whiteSpace=wrap;html=1;absoluteArcSize=1;arcSize=14;strokeWidth=2;" parent="1" vertex="1">
          <mxGeometry x="140" y="120" width="120" height="40" as="geometry" />
        </mxCell>
        <mxCell id="3kC1Cd_PgrKXWJZZKIY_-7" style="edgeStyle=orthogonalEdgeStyle;rounded=0;orthogonalLoop=1;jettySize=auto;html=1;exitX=0.5;exitY=1;exitDx=0;exitDy=0;entryX=0.5;entryY=0;entryDx=0;entryDy=0;" parent="1" source="3kC1Cd_PgrKXWJZZKIY_-4" target="3kC1Cd_PgrKXWJZZKIY_-6" edge="1">
          <mxGeometry relative="1" as="geometry" />
        </mxCell>
        <mxCell id="3kC1Cd_PgrKXWJZZKIY_-4" value="Get current channel set data" style="rounded=1;whiteSpace=wrap;html=1;absoluteArcSize=1;arcSize=14;strokeWidth=2;" parent="1" vertex="1">
          <mxGeometry x="140" y="200" width="120" height="40" as="geometry" />
        </mxCell>
        <mxCell id="3kC1Cd_PgrKXWJZZKIY_-11" value="" style="edgeStyle=orthogonalEdgeStyle;rounded=0;orthogonalLoop=1;jettySize=auto;html=1;" parent="1" source="3kC1Cd_PgrKXWJZZKIY_-6" target="3kC1Cd_PgrKXWJZZKIY_-10" edge="1">
          <mxGeometry relative="1" as="geometry" />
        </mxCell>
        <mxCell id="3kC1Cd_PgrKXWJZZKIY_-6" value="Get new channels" style="rounded=1;whiteSpace=wrap;html=1;absoluteArcSize=1;arcSize=14;strokeWidth=2;" parent="1" vertex="1">
          <mxGeometry x="140" y="280" width="120" height="40" as="geometry" />
        </mxCell>
        <mxCell id="3kC1Cd_PgrKXWJZZKIY_-13" value="" style="edgeStyle=orthogonalEdgeStyle;rounded=0;orthogonalLoop=1;jettySize=auto;html=1;" parent="1" source="3kC1Cd_PgrKXWJZZKIY_-10" target="3kC1Cd_PgrKXWJZZKIY_-12" edge="1">
          <mxGeometry relative="1" as="geometry" />
        </mxCell>
        <mxCell id="3kC1Cd_PgrKXWJZZKIY_-16" value="" style="edgeStyle=orthogonalEdgeStyle;rounded=0;orthogonalLoop=1;jettySize=auto;html=1;" parent="1" source="3kC1Cd_PgrKXWJZZKIY_-10" target="3kC1Cd_PgrKXWJZZKIY_-15" edge="1">
          <mxGeometry relative="1" as="geometry" />
        </mxCell>
        <mxCell id="3kC1Cd_PgrKXWJZZKIY_-10" value="Any new&amp;nbsp;&lt;br&gt;Channel&lt;div&gt;&lt;br&gt;&lt;/div&gt;" style="rhombus;whiteSpace=wrap;html=1;rounded=1;arcSize=14;strokeWidth=2;" parent="1" vertex="1">
          <mxGeometry x="145" y="360" width="110" height="80" as="geometry" />
        </mxCell>
        <mxCell id="3kC1Cd_PgrKXWJZZKIY_-12" value="Add log into database" style="whiteSpace=wrap;html=1;rounded=1;arcSize=14;strokeWidth=2;" parent="1" vertex="1">
          <mxGeometry x="380" y="560" width="120" height="40" as="geometry" />
        </mxCell>
        <mxCell id="3kC1Cd_PgrKXWJZZKIY_-18" value="" style="edgeStyle=orthogonalEdgeStyle;rounded=0;orthogonalLoop=1;jettySize=auto;html=1;" parent="1" source="3kC1Cd_PgrKXWJZZKIY_-15" target="3kC1Cd_PgrKXWJZZKIY_-17" edge="1">
          <mxGeometry relative="1" as="geometry" />
        </mxCell>
        <mxCell id="3kC1Cd_PgrKXWJZZKIY_-15" value="Build Html body using template" style="whiteSpace=wrap;html=1;rounded=1;arcSize=14;strokeWidth=2;" parent="1" vertex="1">
          <mxGeometry x="140" y="480" width="120" height="40" as="geometry" />
        </mxCell>
        <mxCell id="3kC1Cd_PgrKXWJZZKIY_-20" value="" style="edgeStyle=orthogonalEdgeStyle;rounded=0;orthogonalLoop=1;jettySize=auto;html=1;" parent="1" source="3kC1Cd_PgrKXWJZZKIY_-17" target="3kC1Cd_PgrKXWJZZKIY_-19" edge="1">
          <mxGeometry relative="1" as="geometry" />
        </mxCell>
        <mxCell id="3kC1Cd_PgrKXWJZZKIY_-17" value="Send email" style="whiteSpace=wrap;html=1;rounded=1;arcSize=14;strokeWidth=2;" parent="1" vertex="1">
          <mxGeometry x="140" y="560" width="120" height="40" as="geometry" />
        </mxCell>
        <mxCell id="3kC1Cd_PgrKXWJZZKIY_-19" value="Add&amp;nbsp; log into database" style="whiteSpace=wrap;html=1;rounded=1;arcSize=14;strokeWidth=2;" parent="1" vertex="1">
          <mxGeometry x="140" y="640" width="120" height="40" as="geometry" />
        </mxCell>
        <mxCell id="3kC1Cd_PgrKXWJZZKIY_-21" value="Yes" style="text;html=1;align=center;verticalAlign=middle;resizable=0;points=[];autosize=1;strokeColor=none;fillColor=none;" parent="1" vertex="1">
          <mxGeometry x="190" y="438" width="40" height="30" as="geometry" />
        </mxCell>
        <mxCell id="3kC1Cd_PgrKXWJZZKIY_-22" value="No" style="text;html=1;align=center;verticalAlign=middle;resizable=0;points=[];autosize=1;strokeColor=none;fillColor=none;" parent="1" vertex="1">
          <mxGeometry x="250" y="380" width="40" height="30" as="geometry" />
        </mxCell>
        <mxCell id="3kC1Cd_PgrKXWJZZKIY_-23" value="End" style="strokeWidth=2;html=1;shape=mxgraph.flowchart.terminator;whiteSpace=wrap;" parent="1" vertex="1">
          <mxGeometry x="150" y="720" width="100" height="40" as="geometry" />
        </mxCell>
        <mxCell id="3kC1Cd_PgrKXWJZZKIY_-25" style="edgeStyle=orthogonalEdgeStyle;rounded=0;orthogonalLoop=1;jettySize=auto;html=1;entryX=0.5;entryY=0;entryDx=0;entryDy=0;entryPerimeter=0;" parent="1" source="3kC1Cd_PgrKXWJZZKIY_-19" target="3kC1Cd_PgrKXWJZZKIY_-23" edge="1">
          <mxGeometry relative="1" as="geometry" />
        </mxCell>
        <mxCell id="3kC1Cd_PgrKXWJZZKIY_-26" style="edgeStyle=orthogonalEdgeStyle;rounded=0;orthogonalLoop=1;jettySize=auto;html=1;entryX=1;entryY=0.5;entryDx=0;entryDy=0;entryPerimeter=0;" parent="1" source="3kC1Cd_PgrKXWJZZKIY_-12" target="3kC1Cd_PgrKXWJZZKIY_-23" edge="1">
          <mxGeometry relative="1" as="geometry">
            <Array as="points">
              <mxPoint x="440" y="740" />
            </Array>
          </mxGeometry>
        </mxCell>
      </root>
    </mxGraphModel>
  </diagram>
</mxfile>
